<?xml version="1.0" encoding="UTF-8"?>
<svg id="Layer_2" data-name="Layer 2" xmlns="http://www.w3.org/2000/svg" viewBox="0 0 1000 1000">
  <defs>
    <style>
      .cls-1 {
        fill: #bac4ff;
      }

      .cls-1, .cls-2, .cls-3, .cls-4, .cls-5, .cls-6, .cls-7, .cls-8, .cls-9, .cls-10, .cls-11 {
        stroke-width: 0px;
      }

      .cls-2 {
        fill: #f3f8ff;
      }

      .cls-3 {
        fill: #6380fe;
      }

      .cls-4 {
        fill: #f47382;
      }

      .cls-5 {
        fill: #f3f6ff;
      }

      .cls-6 {
        fill: #2d26c4;
      }

      .cls-7 {
        fill: #fff;
      }

      .cls-8 {
        fill: #4469f2;
      }

      .cls-9 {
        fill: #121863;
      }

      .cls-10 {
        fill: #ff685d;
      }

      .cls-11 {
        fill: #ffc7d2;
      }
    </style>
  </defs>
  <circle class="cls-5" cx="500" cy="499.02" r="477.05"/>
  <path class="cls-1" d="m577.12,160.63c-53.98-10.11-109.57-17.26-164.46-10.96-44.38,5.09-86.29,19.97-126.46,39.06-48.09,22.85-92.26,53.48-130.19,90.88-37.64,37.11-69.33,80.99-89.45,130.04-19.91,48.56-27.42,101.83-18.61,153.76s34.75,103.99,69.12,146.07,78.46,77.46,126.51,103.74c54.06,29.57,113.55,48.63,174.06,59.56,62.21,11.24,125.82,14.06,188.88,10.56,63.61-3.53,129.19-12.14,187.25-39.88,47.2-22.55,88.11-57.95,117.16-101.47,27.84-41.7,44.71-91.12,44.86-141.47.16-55.07-20.42-114.5-68.71-145.22-48.03-30.54-109.62-29.72-164.42-30.43-35.64-.46-71.27-.05-106.91-.12-34.15-.07-68.7.29-102.71-3.15-31.32-3.17-62.14-12.16-84.76-35.15-20.28-20.61-32.54-48.9-34.76-77.65-2.36-30.63,7.1-61.27,29.84-82.53,23.19-21.69,54.42-31.42,85.2-36.04,33.25-4.99,67.43-6.51,101.03-6.55s67.74,2.33,101.04,8.45c62.84,11.55,123.34,37.25,170.64,80.95,23.01,21.26,45.81,45.43,58.25,74.61,6.31,14.8,10.44,31.91,6.28,47.86-3.07,11.77-11.29,19.91-22.43,24.38-24.03,9.65-53.19,5.47-77.66-.06-.94-.21-1.34,1.23-.4,1.45,24.25,5.49,52.4,9.42,76.43.83,8.68-3.1,16.78-8.34,21.57-16.4,6.59-11.1,6.59-25.34,4.19-37.64-5.77-29.65-25.11-55.02-45.41-76.48-20.93-22.12-44.11-41.6-70.33-57.18-55.12-32.74-118.88-47.26-182.38-51.12-33.13-2.02-66.39-1.23-99.47,1.17-31.47,2.28-63.85,5.34-93.01,18.28-25.05,11.11-46.97,29.66-57.49,55.45s-9.82,56.27-.67,82.72c8.59,24.84,24.79,47.39,47.05,61.68,25.46,16.34,56.38,20.3,85.97,21.87,70.98,3.78,142.16.52,213.19,2.29,54.75,1.37,116.6,4.31,159.22,43.45,43.41,39.87,55.74,104.96,47.98,161.3-7.12,51.7-31.05,100.36-65.31,139.47-37.7,43.05-86.97,73.02-141.62,89.36-32.47,9.71-66.08,15.16-99.76,18.49s-64.13,4.62-96.25,4.35c-63.83-.54-127.85-8.07-189.44-25.14-57.79-16.02-113.5-40.59-162.31-75.66-45.26-32.52-84.91-73.78-112.59-122.35-27.64-48.48-42.4-103.82-38.45-159.74,3.79-53.74,23.94-105.16,53.3-149.99,30.19-46.1,69.95-85.88,114.75-117.82,40.3-28.74,85.72-51.73,132.84-67s92.45-18.77,139.83-15.55c30.1,2.04,59.99,6.57,89.62,12.12.94.18,1.35-1.27.4-1.45h0Z"/>
  <g>
    <g>
      <path class="cls-11" d="m129.35,65.55s-6.76-7.11-10.17,0,10.17,23.33,10.17,23.33c0,0-7.61-1.71-9.03,5.12s9.03,16.5,9.03,16.5c0,0-9.89,1.14-9.6,9.96.28,8.82,9.6,15.36,9.6,15.36v-70.28Z"/>
      <rect class="cls-9" x="128.39" y="0" width="82.85" height="157.37" rx="3.38" ry="3.38" transform="translate(339.63 157.37) rotate(-180)"/>
      <rect class="cls-7" x="136.09" y="9.58" width="67.45" height="138.22" rx="3.38" ry="3.38" transform="translate(339.63 157.37) rotate(-180)"/>
      <path class="cls-11" d="m363.81,312.43l-76.9,65.88c-20.67-40.41-64.43-163.19-70.39-165.64-1.6-.67-26.13-20.7-32.73-25.16-6.6-4.47-23.67-29.28-23.67-29.28h39.47c5.48,0,9.92-4.44,9.92-9.92v-30.7s-4.95-15.03-8.66-19.9c-3.71-4.88-5.77-14.22-4.12-20.31,1.65-6.09,37.52,29.66,39.17,32.49,1.65,2.84,35.3,83.34,39.84,94.72,2.72,6.81,50.33,63.47,88.07,107.82Z"/>
      <path class="cls-3" d="m495.23,389.16s-137.27-77.67-144.53-87.06-65.51,73.23-63.8,76.21,50.86,43.55,72.63,62.33c21.77,18.78,63.99,53.63,81.49,68.56,17.5,14.94,40.49,54.47,40.49,54.47l42.12-168.48-28.39-6.03Z"/>
      <path class="cls-7" d="m372.05,308.5s-20.91-20.91-28.6-17.5c-7.68,3.41-40.55,23.47-47.8,32.44-7.26,8.96-22.62,43.96-14.51,52.5,8.11,8.54,20.06,26.89,28.17,19.21,8.11-7.68,70.85-75.97,62.74-86.64Z"/>
      <path class="cls-4" d="m209.12,122.88c.16,15.94,2.26,32.56,10.06,46.73,2.19,3.99,4.86,7.7,7.93,11.06,1.31,1.43,3.42-.7,2.12-2.12-10.54-11.51-14.95-27.11-16.43-42.34-.43-4.43-.63-8.88-.67-13.32-.02-1.93-3.02-1.93-3,0h0Z"/>
      <path class="cls-1" d="m170.79,98.65c-12.21,0-22.14-9.93-22.14-22.14s9.93-22.14,22.14-22.14c2.52,0,4.56,2.04,4.56,4.56s-2.04,4.56-4.56,4.56c-7.18,0-13.03,5.84-13.03,13.03s5.84,13.03,13.03,13.03,13.03-5.84,13.03-13.03c0-2.52,2.04-4.56,4.56-4.56s4.56,2.04,4.56,4.56c0,12.21-9.93,22.14-22.14,22.14Z"/>
    </g>
    <g>
      <path class="cls-9" d="m662.38,201.47s30.6,52.41,17.65,83.38c-12.95,30.97-33.32,35.77-8.49,59.44,24.83,23.67-37.91,110.72-134.65,40.71-96.74-70.01-49.21-195.94,125.49-183.53Z"/>
      <g>
        <g>
          <path class="cls-9" d="m692.27,213.69h0c-1.31-4.7-2.89-9.3-4.8-13.77-3.07-7.23-6.95-14.15-11.79-20.59-2.23-3-4.67-5.88-7.33-8.65-.97-1.02-1.99-2.02-3.03-3.01-.54-.5-1.09-1.02-1.65-1.52-3.77-3.4-7.51-6.47-11.2-9.2-.11-.08-.21-.16-.31-.23-2.12-1.56-4.21-3.01-6.29-4.37-1.39-.91-2.79-1.77-4.17-2.58-5.1-3.03-10.09-5.46-14.94-7.41-4.53-1.81-8.95-3.19-13.22-4.21-17.08-4.08-31.82-2.37-42.65.56-.31.09-.63.18-.94.26-11.57,3.28-18.39,7.87-18.39,7.87,0,0-40.9-.93-59.25,34.33-2.91,5.6-5.25,12.11-6.79,19.69-4.24,21.12-3.14,38.23-.15,51.3v.02c2.05,9.01,5,16.11,7.71,21.28.16.32.32.62.49.92-.07.16-.15.33-.23.5,0,0,.22.43.65,1.22.48.91,1.24,2.27,2.24,4.03.5.88,1.07,1.86,1.69,2.94,5.33,9.15,15.08,24.82,28.03,41,.81,1.01,1.64,2.02,2.48,3.04h0c2.04,2.5,4.14,4.97,6.33,7.44.79.89,1.6,1.79,2.4,2.67.56.62,1.13,1.23,1.7,1.84,3.1,3.34,6.34,6.62,9.68,9.78.92.88,1.85,1.74,2.78,2.6,1.81,1.64,3.63,3.24,5.49,4.79,4.82,4.04,9.83,7.77,15,11.06,2.89,1.84,5.83,3.55,8.83,5.08h0c2.35,1.21,4.73,2.32,7.13,3.33.05.02.09.03.14.06h0c2.32.95,4.67,1.81,7.04,2.55,2.11.66,4.25,1.22,6.39,1.68,24.15-18.81,57.36-14.49,85.21-58.83,29.27-46.62,5.93-106.81,5.68-107.46Z"/>
          <path class="cls-11" d="m661.87,338.46c-11.71,5.39-24.22-5.72-24.22-5.72,0,0-1.92,11.33-11.3,20.8h0s-.03.03-.04.05c-.03.02-.07.06-.12.11-.14.14-.28.29-.42.42-.81.78-1.56,1.51-2.27,2.19-.11.11-.21.21-.32.31-3.57,3.45-5.89,5.8-7.58,8.73-3.9,5.05-7.8,11.25-9.69,17.58-1.85,6.19-3.56,12.78-4.95,18.41-1.95,7.95,1.81,16.17,8.98,19.6,28.26,13.52,91.06,50.78,31.05,92.49-14.69,10.21-117.48,4.06-136.89,4.15-40.27.18-95.58-84.35-34.04-112.48,0,0,49.94-7.29,53.58-12.18,3.63-4.88,5.38-13.95,5.38-13.95l-3.79-1.49c-3.8-1.48-23.26-7.44-28.7-38.93-5.45-31.5,9.57-108.46,9.57-108.46,14.39-5.13,41.19-40,41.9-41.23.73-1.23,4.56-4.17,8.36-4.16,3.81,0,11.92,25.12,32.88,50.5,20.96,25.38,52.18,46.61,52.18,46.61,0,0-.16,18.2-.9,21.4-.74,3.2,1.65.99,3.09.26,1.43-.74,4.35-7.86,6.75-10.08,2.4-2.21,24.29-3.14,27.26,11.38,2.97,14.52-4.05,28.28-15.74,33.66Z"/>
          <path class="cls-4" d="m529,378.98s17.56,4.98,36.38,2.92c18.81-2.05,38.19-14.06,37.7-12.59-.49,1.47-27.88,32.9-56.24,38.73-28.36,5.84-17.83-29.07-17.83-29.07Z"/>
          <path class="cls-4" d="m651.65,308.55s5.09-11.06,12.53-5.14c7.44,5.92,2.11,18.12-3.88,23.01-5.99,4.89-10.37,2.17-8.79-.9s4.43-2.82,4.21-5.4c-.22-2.58-1.41-1.85-2.84-1.61-1.43.24-4.7-5.18-1.22-9.97Z"/>
          <ellipse class="cls-9" cx="573.27" cy="279.52" rx="10.27" ry="7.14" transform="translate(285.57 848.73) rotate(-89.18)"/>
          <ellipse class="cls-7" cx="576.92" cy="274.28" rx="3.2" ry="2.2" transform="translate(294.53 847.27) rotate(-89.19)"/>
          <ellipse class="cls-9" cx="520.07" cy="276.67" rx="9.36" ry="6.01" transform="translate(236.72 793.12) rotate(-89.26)"/>
          <ellipse class="cls-7" cx="523.15" cy="271.89" rx="2.91" ry="1.85" transform="translate(244.61 791.53) rotate(-89.27)"/>
          <path class="cls-9" d="m510.29,261.42c1.43.21,2.88-.09,4.26-.48s2.75-.81,4.11-1.25c2.72-.89,5.41-1.94,7.87-3.43,1.89-1.14.28-4.23-1.62-3.08-2.22,1.34-4.6,2.3-7.05,3.09-1.23.4-2.47.77-3.7,1.14s-2.45.69-3.76.5c-.91-.14-1.73.84-1.76,1.71-.03,1.04.73,1.67,1.65,1.8h0Z"/>
          <path class="cls-9" d="m565.91,255.11c5.69,5.76,13.07,9.35,20.99,10.28,2.17.26,2.27-3.26.11-3.52-6.99-.83-13.61-4.12-18.61-9.19-1.56-1.58-4.05.84-2.48,2.42h0Z"/>
          <g>
            <path class="cls-4" d="m559.57,436.78c3.8-4.89,9.92-4.86,15.43-4.68,6.19.2,12.37-.35,18.46-1.58,2.45-.5,3.01,3.46.57,3.95-5.68,1.15-11.43,1.69-17.21,1.65-4.57-.03-10.88-1.18-14.18,3.06-1.56,2.01-4.65-.38-3.08-2.4h0Z"/>
            <path class="cls-4" d="m523.52,409.8c.04.18.08.35.12.53.04.16.06.22,0,.02.09.32.19.63.3.94.21.59.46,1.16.74,1.72.13.27.27.53.42.79.17.32-.06-.08.06.1.08.12.15.25.23.38.34.53.69,1.05,1.07,1.55,1.5,2.02,3.25,3.82,5,5.59.72.73.45,2.23-.33,2.81-.94.7-1.94.46-2.72-.32-3.79-3.84-7.54-7.96-8.72-13.49-.22-1.02.64-2.17,1.63-2.29,1.1-.13,1.97.57,2.2,1.67h0Z"/>
          </g>
          <path class="cls-4" d="m541.11,285.4c.06,5.37-2.92,10.16-7.17,13.08-1.32.91-4.16,2.32-3.1,4.37,1.24,2.39,4.4,3.33,6.37,4.93,1.95,1.58-.38,4.79-2.34,3.2-2.35-1.91-5.37-2.93-7.07-5.62-1.69-2.68-1.24-5.66.96-7.87,1.86-1.87,4.33-2.87,5.99-5,1.7-2.18,2.55-4.77,2.52-7.55-.01-1.08,1.21-1.87,2.15-1.76,1.15.14,1.68,1.13,1.69,2.21h0Z"/>
          <g>
            <path class="cls-4" d="m532.88,335.22c1.98-1.61,4.55-2.1,6.98-2.44,2.51-.34,5.05-.55,7.59-.59,5.02-.08,10.06.67,14.26,3.64,1.73,1.22,3.46-1.65,1.74-2.87-4.78-3.38-10.64-4.28-16.34-4.14-2.82.07-5.65.33-8.45.74s-5.66,1.3-8.01,3.2c-1.66,1.35.59,3.78,2.23,2.44h0Z"/>
            <path class="cls-4" d="m549.13,351.01c.86.02,1.73.05,2.59.07.42.01.86-.17,1.17-.46s.52-.76.51-1.18-.13-.89-.44-1.2-.7-.51-1.14-.52l-2.59-.07c-.42-.01-.86.17-1.17.46s-.52.76-.51,1.18.13.89.44,1.2.7.51,1.14.52h0Z"/>
          </g>
        </g>
        <g>
          <path class="cls-9" d="m627.44,842.12s12.58,48.86,19.65,88.75c7.07,39.89,4.72,54.01,1.89,56.21s-125.97,18.44-223.16,10.98c-97.19-7.46-138.5-27.66-138.13-32.49s13.58-102.85,31.03-139.25c17.46-36.4,308.72,15.81,308.72,15.81Z"/>
          <path class="cls-3" d="m635.08,714.9c2.6-8.09,27.54-43.53,44.28-66.8,0,0,0,0,0,0,18.17-33.01,18.84-92.68,18.62-111.66-.17-14.64,28.29-45.01,33.03-62.99,1.35-5.12-30.63-19.62-35.67-22.02-27.82-13.25-93.88-44.85-93.88-44.85,0,0-6.92,65.1-67.62,54.3-60.7-10.8-10.22-67.95-10.22-67.95,0,0-35.84,7.76-50.19,10.58,0,0-25.68,9.9-38.28,22.77-12.61,12.87-63.41,101.31-63.41,101.31,0,0-25.4,30.13-25.24,63.84.16,33.7,18.33,87.29,17.96,91.15s-22.54,61.94-31.05,92.85c-8.51,30.91-22.47,61.3-21.74,67.85.74,6.55,150.69,44.25,220.73,50.2,70.04,5.95,105.47,9.4,110.27-2.22,4.8-11.63-11.55-164.07-7.6-176.36Z"/>
          <g>
            <rect class="cls-6" x="616.97" y="448.24" width="18.94" height="3" transform="translate(-136.34 563.11) rotate(-44.13)"/>
            <path class="cls-6" d="m544.13,492.63c-15.55,0-30.18-4.74-41.01-13.63-10.36-8.5-17.33-20.65-23.49-31.38l2.6-1.49c6.32,11.01,12.85,22.4,22.79,30.55,13.8,11.32,34.18,15.57,54.51,11.35,16.69-3.46,33.43-12.13,51.19-26.49l1.89,2.33c-18.14,14.67-35.3,23.54-52.47,27.1-5.37,1.11-10.74,1.66-16.01,1.66Z"/>
            <path class="cls-6" d="m468.27,641.36c-31.82,0-63.64-9.4-90-27.53l1.7-2.47c40.95,28.16,95.31,34.85,141.86,17.46l1.05,2.81c-17.48,6.53-36.05,9.73-54.6,9.73Z"/>
            <rect class="cls-6" x="375.8" y="619.34" width="3" height="30.15" transform="translate(-337.98 452.19) rotate(-44.97)"/>
            <path class="cls-6" d="m395.84,683.5c-10.47-8.25-19.69-17.94-27.41-28.81l2.45-1.74c7.55,10.64,16.57,20.12,26.82,28.19l-1.86,2.36Z"/>
            <path class="cls-6" d="m582.73,828.67l-1.08-2.8c15.26-5.87,30.44-12.47,45.12-19.64l1.32,2.7c-14.76,7.2-30.02,13.84-45.36,19.74Z"/>
            <path class="cls-6" d="m470.81,841.75c-31.65,0-63.02-2.85-92.42-5.51l.27-2.99c58.42,5.3,124.65,11.31,185.06-5.84l.82,2.89c-30.41,8.63-62.21,11.46-93.73,11.46Z"/>
            <path class="cls-6" d="m544.15,845.75l-.12-3c9.47-.39,18.94-1.68,28.16-3.83l.68,2.92c-9.4,2.2-19.07,3.51-28.72,3.91Z"/>
            <rect class="cls-6" x="424.32" y="800.08" width="3" height="37.65" transform="translate(-430.49 1163.37) rotate(-84.44)"/>
          </g>
          <path class="cls-8" d="m373.72,612.07s38.31,60.23,133.61,64.53c95.3,4.3,89.76-40.96,78.73-43.86-11.02-2.91-109.52,48.89-212.34-20.67Z"/>
          <path class="cls-8" d="m386.85,844.18s177.79,50.54,217.1,25.2c39.32-25.34-217.1-25.2-217.1-25.2Z"/>
        </g>
      </g>
      <circle class="cls-9" cx="632.29" cy="162.56" r="57.26"/>
      <path class="cls-6" d="m405.39,458.9c1.29,12.75-6.06,24.47-12.35,34.95-6.64,11.08-13.9,21.79-21.75,32.05-3.86,5.05-7.98,9.9-11.74,15.02s-6.91,10.56-9.19,16.5-3.83,12.22-4.97,18.5c-1.21,6.61-1.89,13.35-1.75,20.07.32,14.82,5.15,28.87,10.41,42.57.68,1.78,3.59,1.01,2.89-.8-4.62-12.06-9.1-24.46-10.09-37.45s1.15-26.66,5.32-39.07c2.05-6.1,4.97-11.73,8.67-17s7.7-9.92,11.54-14.88c7.89-10.19,15.22-20.81,21.93-31.82,7-11.49,15.51-24.59,14.09-38.67-.19-1.9-3.19-1.92-3,0h0Z"/>
    </g>
    <g>
      <g>
        <path class="cls-11" d="m667.9,652.72l7.33,37.65s-48.95.27-72.33-2.86c-23.38-3.14-33.64-2.28-37.92-6.56-4.28-4.28-42.77-51.32-44.48-51.6-1.71-.29-2.28-.57-10.83-4.28-8.55-3.71-26.23-17.68-27.09-12.26s3.71,12.54,3.71,12.54c0,0-10.83,3.71-13.4,6.27s0,9.98,0,12.26,8.27,9.5,8.27,9.5c0,0-5.42,4.18-5.42,10.74s7.7,14.54,7.7,14.54c0,0-6.56,10.83-4.28,16.54s12.54,13.69,12.54,13.69c0,0-2.85,11.4.57,14.83,3.42,3.42,30.51,18.53,39.06,19.1,8.55.57,40.2-1.14,41.91-1.14s78.26,31.36,115.04,38.2c36.78,6.84,56.02-.86,69.71-14.11,13.69-13.26,14.54-22.24,12.4-38.06-2.14-15.82.86-63.72-3.85-97.08-4.7-33.36-98.65,22.1-98.65,22.1Z"/>
        <path class="cls-3" d="m654.5,636.01c2.87,12.91,5.3,21.9,5.98,23.97,2.56,7.86,15.82,7.86,23.09,7.86,7.27,0,30.8-1.72,62.02-14.11,31.21-12.4,30.36-22.67,29.51-32.5-.13-1.58-1.07-6.21-2.65-12.93-8.21-35.03-29.58-128.47-51.16-142.91,0,0-53.53-6.25-72.35,36.52-13.86,31.49-2.44,98.06,5.57,134.11Z"/>
      </g>
      <path class="cls-7" d="m669.53,684.33s-11.79-15.79-9.04-24.34,16.39-1.55,47.19-16.25c30.8-14.7,66.85-23.75,71.05-18.18,4.2,5.58,2.83,33.6-3.35,38.48-6.17,4.88-53,26.25-70.5,26.6-17.5.35-32.32-1.76-35.35-6.3Z"/>
      <path class="cls-4" d="m676.28,692.46c16.27,2.55,31.69,9.82,43.99,20.79,3.5,3.12,6.73,6.53,9.68,10.17,1.21,1.5,3.32-.63,2.12-2.12-10.63-13.16-25.11-23.05-41.15-28.38-4.51-1.5-9.14-2.61-13.84-3.35-1.89-.3-2.7,2.59-.8,2.89h0Z"/>
    </g>
  </g>
  <g>
    <path class="cls-1" d="m262.05,72.18h-6.05l-8.94-15.7v15.7h-6.08v-25.23h6.08l8.92,15.7v-15.7h6.06v25.23Z"/>
    <path class="cls-1" d="m287.26,60.08c0,2.46-.46,4.64-1.37,6.53-.91,1.89-2.21,3.35-3.89,4.38-1.68,1.02-3.6,1.53-5.74,1.53s-4.05-.49-5.72-1.48c-1.66-.99-2.96-2.4-3.89-4.24-.93-1.84-1.42-3.94-1.46-6.32v-1.42c0-2.47.45-4.65,1.36-6.54.91-1.89,2.21-3.35,3.9-4.37s3.62-1.54,5.78-1.54,4.04.51,5.72,1.53c1.67,1.02,2.98,2.46,3.91,4.34.93,1.88,1.4,4.03,1.41,6.45v1.16Zm-6.19-1.06c0-2.51-.42-4.41-1.26-5.71-.84-1.3-2.04-1.95-3.6-1.95-3.05,0-4.66,2.29-4.83,6.86l-.02,1.85c0,2.47.41,4.37,1.23,5.7s2.04,1.99,3.66,1.99,2.72-.65,3.55-1.96c.83-1.31,1.25-3.18,1.27-5.63v-1.16Z"/>
    <path class="cls-1" d="m319.65,63.64c-.08,1.76-.55,3.31-1.42,4.65s-2.08,2.39-3.65,3.13c-1.57.74-3.35,1.11-5.36,1.11-3.32,0-5.93-1.08-7.83-3.24-1.91-2.16-2.86-5.21-2.86-9.15v-1.25c0-2.47.43-4.64,1.29-6.49.86-1.85,2.1-3.29,3.72-4.3,1.62-1.01,3.49-1.52,5.61-1.52,3.06,0,5.52.81,7.38,2.42s2.92,3.83,3.17,6.66h-6.07c-.05-1.54-.43-2.64-1.16-3.31-.73-.67-1.84-1-3.33-1s-2.62.57-3.33,1.7c-.7,1.13-1.07,2.94-1.11,5.42v1.79c0,2.69.34,4.61,1.01,5.77s1.84,1.73,3.49,1.73c1.4,0,2.47-.33,3.21-.99.74-.66,1.13-1.7,1.18-3.14h6.05Z"/>
    <path class="cls-1" d="m343.89,60.08c0,2.46-.46,4.64-1.37,6.53-.91,1.89-2.21,3.35-3.89,4.38-1.68,1.02-3.6,1.53-5.74,1.53s-4.05-.49-5.72-1.48c-1.66-.99-2.96-2.4-3.89-4.24-.93-1.84-1.42-3.94-1.46-6.32v-1.42c0-2.47.45-4.65,1.36-6.54.91-1.89,2.21-3.35,3.9-4.37s3.62-1.54,5.78-1.54,4.04.51,5.72,1.53c1.67,1.02,2.98,2.46,3.91,4.34.93,1.88,1.4,4.03,1.41,6.45v1.16Zm-6.19-1.06c0-2.51-.42-4.41-1.26-5.71-.84-1.3-2.04-1.95-3.6-1.95-3.05,0-4.66,2.29-4.83,6.86l-.02,1.85c0,2.47.41,4.37,1.23,5.7s2.04,1.99,3.66,1.99,2.72-.65,3.55-1.96c.83-1.31,1.25-3.18,1.27-5.63v-1.16Z"/>
    <path class="cls-1" d="m368.1,72.18h-6.05l-8.94-15.7v15.7h-6.08v-25.23h6.08l8.92,15.7v-15.7h6.06v25.23Z"/>
    <path class="cls-1" d="m393.01,72.18h-6.05l-8.94-15.7v15.7h-6.08v-25.23h6.08l8.92,15.7v-15.7h6.06v25.23Z"/>
    <path class="cls-1" d="m412.51,61.47h-9.56v6.03h11.3v4.68h-17.38v-25.23h17.41v4.7h-11.33v5.32h9.56v4.51Z"/>
    <path class="cls-1" d="m437.13,63.64c-.08,1.76-.55,3.31-1.42,4.65s-2.08,2.39-3.65,3.13c-1.57.74-3.35,1.11-5.36,1.11-3.32,0-5.93-1.08-7.83-3.24-1.91-2.16-2.86-5.21-2.86-9.15v-1.25c0-2.47.43-4.64,1.29-6.49.86-1.85,2.1-3.29,3.72-4.3,1.62-1.01,3.49-1.52,5.61-1.52,3.06,0,5.52.81,7.38,2.42s2.92,3.83,3.17,6.66h-6.07c-.05-1.54-.43-2.64-1.16-3.31-.73-.67-1.84-1-3.33-1s-2.62.57-3.33,1.7c-.7,1.13-1.07,2.94-1.11,5.42v1.79c0,2.69.34,4.61,1.01,5.77s1.84,1.73,3.49,1.73c1.4,0,2.47-.33,3.21-.99.74-.66,1.13-1.7,1.18-3.14h6.05Z"/>
    <path class="cls-1" d="m459.31,51.65h-7.57v20.53h-6.08v-20.53h-7.43v-4.7h21.09v4.7Z"/>
    <path class="cls-1" d="m468.36,72.18h-6.07v-25.23h6.07v25.23Z"/>
    <path class="cls-1" d="m493.95,60.08c0,2.46-.46,4.64-1.37,6.53-.91,1.89-2.21,3.35-3.89,4.38-1.68,1.02-3.6,1.53-5.74,1.53s-4.05-.49-5.72-1.48c-1.66-.99-2.96-2.4-3.89-4.24-.93-1.84-1.42-3.94-1.46-6.32v-1.42c0-2.47.45-4.65,1.36-6.54.91-1.89,2.21-3.35,3.9-4.37s3.62-1.54,5.78-1.54,4.04.51,5.72,1.53c1.67,1.02,2.98,2.46,3.91,4.34.93,1.88,1.4,4.03,1.41,6.45v1.16Zm-6.19-1.06c0-2.51-.42-4.41-1.26-5.71-.84-1.3-2.04-1.95-3.6-1.95-3.05,0-4.66,2.29-4.83,6.86l-.02,1.85c0,2.47.41,4.37,1.23,5.7s2.04,1.99,3.66,1.99,2.72-.65,3.55-1.96c.83-1.31,1.25-3.18,1.27-5.63v-1.16Z"/>
    <path class="cls-1" d="m518.15,72.18h-6.05l-8.94-15.7v15.7h-6.08v-25.23h6.08l8.92,15.7v-15.7h6.06v25.23Z"/>
    <path class="cls-1" d="m525.35,66.51c.92,0,1.69.27,2.3.82.61.55.92,1.25.92,2.11s-.31,1.56-.92,2.11c-.61.55-1.38.82-2.3.82s-1.71-.28-2.31-.83c-.61-.55-.91-1.25-.91-2.1s.3-1.54.91-2.1c.61-.55,1.38-.83,2.31-.83Z"/>
    <path class="cls-1" d="m536.07,66.51c.92,0,1.69.27,2.3.82.61.55.92,1.25.92,2.11s-.31,1.56-.92,2.11c-.61.55-1.38.82-2.3.82s-1.71-.28-2.31-.83c-.61-.55-.91-1.25-.91-2.1s.3-1.54.91-2.1c.61-.55,1.38-.83,2.31-.83Z"/>
    <path class="cls-1" d="m546.8,66.51c.92,0,1.69.27,2.3.82.61.55.92,1.25.92,2.11s-.31,1.56-.92,2.11c-.61.55-1.38.82-2.3.82s-1.71-.28-2.31-.83c-.61-.55-.91-1.25-.91-2.1s.3-1.54.91-2.1c.61-.55,1.38-.83,2.31-.83Z"/>
    <path class="cls-1" d="m557.52,66.51c.92,0,1.69.27,2.3.82.61.55.92,1.25.92,2.11s-.31,1.56-.92,2.11c-.61.55-1.38.82-2.3.82s-1.71-.28-2.31-.83c-.61-.55-.91-1.25-.91-2.1s.3-1.54.91-2.1c.61-.55,1.38-.83,2.31-.83Z"/>
  </g>
  <g>
    <path class="cls-10" d="m351.81,189.95c-4.61,0-8.75-2.39-11.05-6.38-2.31-4-2.31-8.77,0-12.76l41.2-71.37c2.31-4,6.44-6.38,11.05-6.38s8.75,2.39,11.05,6.38l41.2,71.37c2.31,4,2.31,8.77,0,12.76-2.31,4-6.44,6.38-11.05,6.38h-82.41Z"/>
    <path class="cls-7" d="m388,164.22c0-1.32.48-2.41,1.43-3.25.95-.85,2.15-1.27,3.58-1.27s2.62.42,3.58,1.27c.95.85,1.43,1.93,1.43,3.25s-.48,2.41-1.43,3.25c-.96.85-2.15,1.27-3.58,1.27s-2.62-.42-3.58-1.27c-.96-.85-1.43-1.93-1.43-3.25Zm8.73-8.3h-7.31l-1.15-26.65h9.62l-1.15,26.65Z"/>
  </g>
  <g>
    <rect class="cls-3" x="793.9" y="405.14" width="55.23" height="37.91" transform="translate(-102.95 434.07) rotate(-27.92)"/>
    <rect class="cls-3" x="833.98" y="435.69" width="34.28" height="88.57" transform="translate(-125.67 454.44) rotate(-27.92)"/>
    <circle class="cls-1" cx="791.21" cy="366.92" r="70.59"/>
    <circle class="cls-2" cx="791.21" cy="366.92" r="39.34"/>
  </g>
  <g>
    <g>
      <rect class="cls-1" x="62.99" y="548.5" width="45.11" height="69.35"/>
      <rect class="cls-1" x="121.56" y="510.79" width="45.11" height="107.05"/>
      <rect class="cls-1" x="180.14" y="472.42" width="45.11" height="145.43"/>
      <rect class="cls-1" x="238.71" y="440.1" width="45.11" height="177.74"/>
    </g>
    <g>
      <circle class="cls-10" cx="264.7" cy="601.59" r="46.94"/>
      <path class="cls-7" d="m275.08,602.6c-.56-.56-.56-1.46,0-2.02l12.52-12.52c.56-.56.56-1.46,0-2.02l-7.35-7.35c-.56-.56-1.46-.56-2.02,0l-12.52,12.52c-.56.56-1.46.56-2.02,0l-12.52-12.52c-.56-.56-1.46-.56-2.02,0l-7.35,7.35c-.56.56-.56,1.46,0,2.02l12.52,12.52c.56.56.56,1.46,0,2.02l-12.52,12.52c-.56.56-.56,1.46,0,2.02l7.35,7.35c.56.56,1.46.56,2.02,0l12.52-12.52c.56-.56,1.46-.56,2.02,0l12.52,12.52c.56.56,1.46.56,2.02,0l7.35-7.35c.56-.56.56-1.46,0-2.02l-12.52-12.52Z"/>
    </g>
  </g>
</svg>